<svg height="464pt" viewBox="-64 0 464 464" width="464pt" xmlns="http://www.w3.org/2000/svg"><path d="M272 272h16v128h-16zM208 304h16v96h-16zM144 336h16v64h-16zM80 368h16v32H80zM64 192h96V48H64zM80 64h64v16H80zm0 32h64v16H80zm0 32h64v16H80zm0 32h64v16H80zM305.223 32l5.328-32h-77.102l5.328 32zm0 0"/><path d="m324.113 16-5.336 32H296v26.96c5.121 5.833 8 13.313 8 21.04 0 17.648-14.352 32-32 32s-32-14.352-32-32c0-7.727 2.879-15.207 8-21.04V48h-22.777l-5.336-32H32v416h304V16zM192 144h16v16h-16zm0 32h16v16h-16zm0 32h16v16h-16zM48 32h128v176H48zm272 384H48v-16h16v-48h48v48h16v-80h48v80h16V288h48v112h16V256h48v144h16zm0-192h-96v-16h96zm0-32h-96v-16h96zm0-32h-96v-16h96zm0 0"/><path d="M264 48v33.785l-2.64 2.383C257.901 87.281 256 91.488 256 96c0 8.824 7.176 16 16 16s16-7.176 16-16c0-4.512-1.902-8.719-5.36-11.832L280 81.785V48zM16 48H0v416h304v-16H16zm0 0"/></svg>